<?xml version="1.0" encoding="utf-8"?>

<!DOCTYPE svg PUBLIC "-//W3C//DTD SVG 1.1//EN" "http://www.w3.org/Graphics/SVG/1.1/DTD/svg11.dtd">
<svg version="1.1" id="Layer_1" xmlns="http://www.w3.org/2000/svg" xmlns:xlink="http://www.w3.org/1999/xlink" x="0px" y="0px"
	 viewBox="518.0001 -31.2363 1524 1662.4724" enable-background="new 518.0001 -31.2363 1524 1662.4724" xml:space="preserve">
<path d="M1224.5604,16.2235c18.6405-1.3524,37.0624,0.3887,55.4659,1.4997c94.3052,5.693,182.3912,32.2594,263.1583,81.68
	c53.1299,32.5098,98.5371,73.7812,135.3529,124.0604c52.8865,72.2274,81.142,153.5571,87.8162,242.6168
	c0.2635,3.5175-1.2069,8.6837,2.3124,10.0559c4.1752,1.628,5.2915-4.0297,7.4393-6.5377
	c18.4508-21.5444,42.3732-35.9586,65.891-50.8401c17.537-11.0972,34.7369-22.6338,51.6514-34.6692
	c36.7972-26.1831,55.2451-62.1247,59.8174-106.515c1.7814-17.2952,10.6703-31.7027,24.3525-42.9709
	c2.8088-2.3132,8.5156-10.3534,8.5156-10.3534s1.436,9.7412,2.5366,13.4451c12.5228,42.1451,13.2146,84.1648,2.9514,127.1885
	c-5.8284,24.4326-10.64,49.0263-18.9962,72.7959c-11.5443,32.8376-24.0992,65.3722-39.1085,96.669
	c-13.1233,27.3638-28.9811,53.5684-45.3236,79.206c-39.8812,62.5639-63.9193,130.2535-71.483,204.1599
	c-2.7976,27.3353-9.1454,54.205-19.6499,79.938c-11.5415,28.2731-31.3912,47.1677-60.6943,55.7044
	c-13.0031,3.7881-26.2899,6.5973-39.4238,9.9445c-6.4209,1.6363-12.861,3.2577-19.1633,5.2863
	c-15.8689,5.1076-26.3777,12.8145-29.8202,32.1162c-10.9551,61.4217-39.1136,115.614-75.0756,166.2344
	c-33.318,46.8986-69.9075,91.6881-97.2922,142.5371c-24.3481,45.2103-46.5748,91.559-70.6327,136.9308
	c-27.2426,51.3777-61.6499,96.8082-114.2848,124.8418c-15.5551,8.2845-33.3246,13.578-50.9252,12.9746
	c-26.4331-0.906-52.9191,0.2572-79.3478-2.5281c-32.3005-3.4036-56.95-20.0297-78.7806-42.3368
	c-35.5586-36.3346-59.3249-80.1774-80.0788-125.9412c-28.2002-62.183-50.8005-126.7999-81.7701-187.783
	c-15.9045-31.3184-35.9314-60.3341-50.4529-92.463c-18.8944-41.8044-33.8559-84.9401-46.142-129.0501
	c-1.8578-6.67-4.808-11.9951-9.8832-16.7241c-23.9863-22.3503-52.4813-38.1317-80.3604-54.5952
	c-38.4503-22.7062-69.2276-52.7605-88.0919-93.0439c-11.8464-25.297-18.4209-52.8147-22.6533-80.7522
	c-9.2883-61.3096-8.8826-123.0424-7.1223-184.637c2.0015-70.035-10.8273-137.0941-33.4423-202.8075
	c-6.1471-17.862-11.8404-35.8859-18.3044-53.6306c-2.5649-7.0413-2.7374-13.7112-2.2414-21.0992
	c1.4699-21.8979,7.6279-43.5702,3.8068-65.5478c-2.5123-14.4496,0.1785-36.4388,2.1666-36.408
	c2.8663,1.2499,18.1818,27.6289,20.9375,33.2572c30.7554,62.8156,65.3684,119.2494,109.9229,171.684
	c6.8438,8.0542,12.8118,16.8488,19.5483,25.0006c1.8991,2.2982,2.9964,7.1038,6.9916,5.7727
	c3.3066-1.1016,3.2036-5.5377,3.9368-8.6211c6.3846-26.8516,15.9881-52.5974,26.3362-78.1085
	c31.1649-76.8304,77.0691-143.3004,139.2375-198.3579l23.6595-19.347c45.9958-35.7175,97.1343-61.433,151.704-81.5821
	C1069.5244,44.5734,1144.4594,22.0349,1224.5604,16.2235z M968.2397,1137.2544c-1.5658,5.4598,0.6322,8.3385,1.8994,11.1577
	c7.3339,16.3158,14.1695,32.9188,22.5629,48.6849c46.4692,87.2891,111.9492,147.5524,216.4078,154.5908
	c70.7673,4.7686,126.973-19.3264,168.7385-77.0061c22.9758-31.7303,40.355-66.5201,57.2655-101.6139
	c1.0411-2.1604,3.425-4.4288,0.5573-7.7979c-4.1351,2.2761-8.1752,5.3301-12.7275,6.8611
	c-19.2542,6.4758-28.0671,18.8307-31.6819,39.6891c-5.7983,33.4608-27.8789,57.4143-58.1244,78.3136
	c9.2104-26.954,10.4225-51.9784,11.3107-77.0702c0.2639-7.4553-1.9697-9.4336-9.2437-6.7234
	c-30.1494,11.234-61.6019,15.2063-93.5693,16.2391c-48.7152,1.574-96.6349-3.3479-143.5389-16.9971
	c-14.6764-4.2709-14.8364-4.2593-18.2413,10.8079c-4.5426,20.1019-1.9509,40.248,0.05,60.3754
	c0.2179,2.192,1.5558,5.0688-0.8098,6.3689c-2.2048,1.2114-4.2941-0.8914-6.0746-2.3568
	c-11.8634-9.7655-19.5503-22.5148-24.9597-36.5675c-8.4481-21.9465-16.301-44.1216-24.4594-66.1802
	c-1.1429-3.0901-2.235-6.317-5.5895-7.8912C1000.2676,1161.8121,984.3586,1150.6112,968.2397,1137.2544z M1534.6271,756.0558
	c-42.3143-0.0463-75.7368,16.4376-105.0773,42.8267c-25.1478,22.6181-45.8578,49.7646-72.434,70.9294
	c-1.1764,0.9369-2.6793,2.7739-2.4589,3.8777c0.4362,2.184,2.949,2.2953,4.8813,2.6066
	c45.6753,7.357,87.5979,0.8747,120.5203-34.9014c20.6301-22.4183,40.1792-45.8334,60.1276-68.8756
	c4.2488-4.9075,14.7401-9.3609,12.5682-13.5047C1549.666,753.1227,1539.6285,756.7975,1534.6271,756.0558z M1017.316,890.9301
	c17.5731,0.4954,34.4029-3.1483,51.0884-7.7045c2.0929-0.5714,5.2791,0.0343,5.5547-3.033c0.2875-3.1976-2.9313-3.0298-4.9844-3.686
	c-7.3232-2.3406-14.1052-5.6976-20.4276-10.0905c-16.9154-11.7533-29.501-27.6692-41.3281-44.0619
	c-28.326-39.2614-66.9427-57.9501-114.7361-59.0937c-1.546-0.037-3.7974-0.2557-4.5119,0.6088
	c-1.639,1.9828,0.465,3.5352,1.7033,4.9777c4.0958,4.7704,8.4245,9.3536,12.326,14.2763
	c15.584,19.6624,24.5145,43.2033,37.3524,64.4818C957.1537,877.1094,982.3002,892.9323,1017.316,890.9301z M1162.4131,1011.6025
	c-2.7087,11.7942-7.2146,23.5085-7.7434,35.3999c-1.0271,23.1029,6.8077,43.0145,27.5535,55.9363
	c4.5101,2.8092,8.558,3.8821,7.5869-3.8971C1186.0128,1068.6233,1176.0118,1040.005,1162.4131,1011.6025z M1254.9642,708.8244
	c-2.9421-0.9008-3.8542-1.4995-4.6606-1.381c-34.0588,5.0098-66.6329-1.9517-98.6481-12.5621
	c-37.7955-12.5262-73.194-30.8698-109.957-45.9122c-5.2593-2.1519-10.4873-4.6901-16.6548-4.8413
	c0.4922,3.778,3.1044,4.2379,5.0795,5.0555c25.4141,10.5195,49.8512,23.0714,74.4994,35.219
	c32.4775,16.0062,65.4067,31.1102,102.5801,32.1772C1222.8982,717.0301,1238.5175,716.2386,1254.9642,708.8244z
	 M1275.0308,1010.8121c-3.2852,25.4224-16.822,43.6354-25.1057,64.0776c-3.1675,7.8169-4.5968,15.9469-3.4265,24.3601
	c0.8018,5.7633,3.3573,7.2971,8.7736,3.8665C1280.3425,1087.2378,1291.8138,1039.9252,1275.0308,1010.8121z M707.7374,765.297
	c-1.5068-2.6671-1.9517-3.8993-2.7567-4.8146c-22.609-25.705-21.2268-66.216,4.5258-88.3664
	c7.7324-6.6508,8.4769-12.9561,7.7451-21.439c-2.3594-27.3544-10.2266-53.3398-19.7745-78.8305
	c-4.0609-10.8419-7.3776-22.1924-14.6979-33.8065c-0.5984,3.1044-1.0651,4.0458-0.8826,4.8378
	c0.7423,3.2212,1.5524,6.439,2.5719,9.5822c10.7156,33.0391,24.3428,65.2759,27.0321,100.5028
	c0.4575,5.9924-0.0763,10.5043-5.408,14.6908c-27.4135,21.5255-32.1581,61.0618-11.0413,88.7231
	C697.8401,760.0297,700.7681,763.6055,707.7374,765.297z M1338.5542,513.6047c-32.001,8.5692-62.1227,14.0539-92.781,16.3182
	c-30.6321,2.2626-61.275,1.8323-94.0221-0.2769C1183.1913,548.6141,1312.2054,537.7235,1338.5542,513.6047z M1096.3938,1389.5054
	c-0.4517,1.2001-0.9702,2.0361-0.8027,2.2096c20.8315,21.5741,108.3354,36.8588,133.9694,21.8854
	C1181.9429,1416.0149,1137.5377,1411.1332,1096.3938,1389.5054z M1738.684,712.3032c3.5737-21.8235,8.6527-43.2675,17.5272-63.6765
	c8.6471-19.8856,20.0615-38.4066,29.4635-57.8793C1756.8472,626.2056,1734.9336,664.4166,1738.684,712.3032z M1494.6632,625.0012
	c-0.3271-1.0432-0.6542-2.0863-0.9813-3.1295c-40.3234,7.97-79.9568,18.1393-116.2808,38.8469
	C1416.4885,648.8128,1455.5759,636.907,1494.6632,625.0012z M1254.2683,373.5182c-36.4764,13.3719-74.9889,9.8892-112.4382,14.2634
	C1180.7129,393.1676,1219.0588,394.4474,1254.2683,373.5182z"/>
</svg>
